<svg width="512" height="512" viewBox="0 0 512 512" fill="none" xmlns="http://www.w3.org/2000/svg">
<g clip-path="url(#clip0_195_215)">
<rect width="512" height="512" rx="80" fill="url(#paint0_linear_195_215)"/>
<path d="M255.543 -121L189.97 33.8363H174.079V69.5459H197.893C197.893 69.5459 197.893 94.1236 197.893 117.337C179.36 117.337 180.705 117.206 162.172 117.206C162.172 151.251 162.172 184.688 162.172 184.688H174.079L197.893 252.216C197.893 252.216 197.635 447.731 197.893 546C255.42 546 255.448 546 312.976 546C313.234 450.31 313.063 252.216 313.063 252.216L336.921 184.688H348.828V117.206L312.976 117.337L313.063 69.5459H336.921V33.8363H321.03L255.543 -121ZM255.5 -89.2276L305.14 33.8363H205.859L255.5 -89.2276ZM185.986 45.7385C255.482 45.7385 255.517 45.7385 325.014 45.7385C325.014 51.6946 325.014 51.6876 325.014 57.6422C255.517 57.6436 255.482 57.6422 185.986 57.6422C185.986 51.6876 185.986 51.6946 185.986 45.7385ZM209.843 69.5459C255.513 69.5459 255.487 69.5459 301.156 69.5459C301.157 93.3687 301.156 93.3841 301.156 117.206C255.487 117.206 255.513 117.206 209.843 117.206C209.843 93.3841 209.843 93.3687 209.843 69.5459ZM174.079 129.109H336.921V172.785H174.079V129.109ZM185.986 184.688H197.893V216.461L185.986 184.688ZM209.843 184.688H301.156C301.156 184.688 301.156 242.262 301.156 299.831C274.209 266.142 237.968 265.527 209.843 298.343C209.843 241.522 209.843 184.688 209.843 184.688ZM313.063 184.688H325.014L313.063 216.461V184.688ZM-16.5161 256.155C-16.5161 401.068 -16.5161 401.088 -16.5161 546C11.2827 546 11.2791 546 39.0779 546C39.0779 401.088 39.0779 401.068 39.0779 256.155C11.2791 256.155 11.2827 256.155 -16.5161 256.155ZM471.922 256.155C471.922 401.068 471.922 401.088 471.922 546C499.721 546 499.716 546 527.515 546C527.515 401.088 527.515 401.068 527.515 256.155C499.716 256.155 499.721 256.155 471.922 256.155ZM-4.60937 266.877C11.2756 266.877 11.2424 266.877 27.1273 266.877C27.1273 400.485 27.1273 400.488 27.1273 534.097C11.2424 534.097 11.2757 534.097 -4.60937 534.097C-4.60937 400.488 -4.60937 400.485 -4.60937 266.877ZM483.829 268.058H515.608V534.097H483.829V268.058ZM255.5 287.927C276.335 287.927 293.233 304.82 293.233 325.652C293.233 346.482 276.335 363.375 255.5 363.375C234.663 363.375 217.766 346.482 217.766 325.652C217.766 304.82 234.663 287.927 255.5 287.927ZM54.9673 331.604C54.9673 438.8 54.9673 438.804 54.9673 546C82.7659 546 82.7631 546 110.562 546C110.562 438.804 110.562 438.8 110.562 331.604C82.7631 331.604 82.7659 331.604 54.9673 331.604ZM543.406 331.604C543.406 438.8 543.406 438.804 543.406 546C571.204 546 571.2 546 599 546C598.999 438.804 599 438.8 599 331.604C571.201 331.604 571.204 331.604 543.406 331.604ZM66.874 343.507C82.7603 343.507 82.7267 343.507 98.6117 343.507C98.6117 438.793 98.6117 438.811 98.6117 534.097C82.7267 534.097 82.7603 534.097 66.874 534.097C66.874 438.811 66.874 438.793 66.874 343.507ZM555.312 343.507H587.093V534.097H555.312V343.507ZM209.843 351.472C233.782 384.478 278.89 385.24 301.156 351.472C301.157 367.353 301.156 534.097 301.156 534.097H209.843C209.843 534.097 209.843 442.787 209.843 351.472ZM328.953 379.262C328.953 462.637 328.953 462.626 328.953 546C356.752 546 356.749 546 384.548 546C384.548 462.626 384.548 462.637 384.548 379.262C356.749 379.262 356.752 379.262 328.953 379.262ZM-88 387.183C-88 466.587 -88 466.596 -88 546C-60.2014 546 -60.2049 546 -32.4062 546C-32.4062 466.596 -32.4062 466.587 -32.4062 387.183C-60.2049 387.183 -60.2014 387.183 -88 387.183ZM340.86 391.166C356.745 391.166 356.756 391.166 372.641 391.166C372.641 462.63 372.641 462.633 372.641 534.097C356.756 534.097 356.745 534.097 340.86 534.097C340.86 462.633 340.86 462.63 340.86 391.166ZM-76.0933 399.086C-60.2084 399.086 -60.1978 399.086 -44.3129 399.086C-44.3129 466.58 -44.3129 466.603 -44.3129 534.097C-60.1978 534.097 -60.2084 534.097 -76.0933 534.097C-76.0933 466.603 -76.0933 466.58 -76.0933 399.086ZM126.409 450.727C126.409 498.37 126.409 498.358 126.409 546C154.208 546 154.247 546 182.045 546C182.045 498.358 182.045 498.37 182.045 450.727C154.247 450.727 154.208 450.727 126.409 450.727ZM400.438 450.727C400.437 498.37 400.437 498.358 400.438 546C428.235 546 428.233 546 456.031 546C456.031 498.358 456.031 498.37 456.031 450.727C428.233 450.727 428.235 450.727 400.438 450.727ZM138.359 462.631C154.244 462.631 154.21 462.631 170.095 462.631C170.095 498.363 170.095 498.365 170.095 534.097C154.21 534.097 154.244 534.097 138.359 534.097C138.359 498.365 138.359 498.363 138.359 462.631ZM412.475 462.631H444.125V534.097H412.475V462.631Z" fill="white"/>
</g>
<defs>
<linearGradient id="paint0_linear_195_215" x1="256" y1="0" x2="256" y2="512" gradientUnits="userSpaceOnUse">
<stop stop-color="#4E1B65"/>
<stop offset="0.68" stop-color="#3D144F"/>
</linearGradient>
<clipPath id="clip0_195_215">
<rect width="512" height="512" rx="80" fill="white"/>
</clipPath>
</defs>
</svg>
