<svg width="256" height="256" viewBox="0 0 256 256" fill="none" xmlns="http://www.w3.org/2000/svg">
<rect width="256" height="256" fill="url(#paint0_linear_194_212)"/>
<path d="M128.012 38.2426L110.384 79.8568H106.113V89.4543H112.514C112.514 89.4543 112.514 96.0598 112.514 102.299C107.532 102.299 107.894 102.263 102.912 102.263C102.912 111.414 102.912 120.4 102.912 120.4H106.113L112.514 138.549C112.514 138.549 112.445 191.096 112.514 217.508C127.979 217.508 127.986 217.508 143.451 217.508C143.52 191.79 143.474 138.549 143.474 138.549L149.888 120.4H153.089V102.263L143.451 102.299L143.474 89.4543H149.888V79.8568H145.616L128.012 38.2426ZM128 46.7818L141.344 79.8568H114.656L128 46.7818ZM109.313 83.0557C127.995 83.0557 128.005 83.0557 146.687 83.0557C146.687 84.6565 146.687 84.6546 146.687 86.255C128.005 86.2554 127.995 86.255 109.313 86.255C109.313 84.6546 109.313 84.6565 109.313 83.0557ZM115.727 89.4543C128.004 89.4543 127.997 89.4543 140.273 89.4543C140.274 95.857 140.273 95.8611 140.273 102.263C127.997 102.263 128.004 102.263 115.727 102.263C115.727 95.8611 115.727 95.857 115.727 89.4543ZM106.113 105.463H149.888V117.201H106.113V105.463ZM109.313 120.4H112.514V128.94L109.313 120.4ZM115.727 120.4H140.273C140.273 120.4 140.273 135.874 140.273 151.346C133.03 142.292 123.287 142.127 115.727 150.947C115.727 135.675 115.727 120.4 115.727 120.4ZM143.474 120.4H146.687L143.474 128.94V120.4ZM54.8765 139.608C54.8765 178.555 54.8765 178.56 54.8765 217.508C62.3494 217.508 62.3485 217.508 69.8213 217.508C69.8213 178.56 69.8213 178.555 69.8213 139.608C62.3485 139.608 62.3494 139.608 54.8765 139.608ZM186.179 139.608C186.179 178.555 186.179 178.56 186.179 217.508C193.652 217.508 193.651 217.508 201.123 217.508C201.123 178.56 201.123 178.555 201.123 139.608C193.651 139.608 193.652 139.608 186.179 139.608ZM58.0773 142.49C62.3475 142.49 62.3386 142.49 66.6088 142.49C66.6088 178.399 66.6088 178.399 66.6088 214.308C62.3386 214.308 62.3475 214.308 58.0773 214.308C58.0773 178.399 58.0773 178.399 58.0773 142.49ZM189.38 142.807H197.923V214.308H189.38V142.807ZM128 148.147C133.601 148.147 138.144 152.687 138.144 158.286C138.144 163.884 133.601 168.425 128 168.425C122.399 168.425 117.856 163.884 117.856 158.286C117.856 152.687 122.399 148.147 128 148.147ZM74.0928 159.886C74.0928 188.696 74.0928 188.697 74.0928 217.508C81.5656 217.508 81.5649 217.508 89.0377 217.508C89.0377 188.697 89.0377 188.696 89.0377 159.886C81.5649 159.886 81.5656 159.886 74.0928 159.886ZM205.395 159.886C205.395 188.696 205.395 188.697 205.395 217.508C212.868 217.508 212.867 217.508 220.34 217.508C220.34 188.697 220.34 188.696 220.34 159.886C212.867 159.886 212.868 159.886 205.395 159.886ZM77.2935 163.085C81.5641 163.085 81.5551 163.085 85.8253 163.085C85.8253 188.694 85.8253 188.699 85.8253 214.308C81.5551 214.308 81.5641 214.308 77.2935 214.308C77.2935 188.699 77.2935 188.694 77.2935 163.085ZM208.596 163.085H217.139V214.308H208.596V163.085ZM115.727 165.226C122.162 174.097 134.288 174.301 140.273 165.226C140.274 169.494 140.273 214.308 140.273 214.308H115.727C115.727 214.308 115.727 189.768 115.727 165.226ZM147.746 172.695C147.746 195.103 147.746 195.1 147.746 217.508C155.219 217.508 155.218 217.508 162.691 217.508C162.691 195.1 162.691 195.103 162.691 172.695C155.218 172.695 155.219 172.695 147.746 172.695ZM35.6602 174.823C35.6602 196.164 35.6602 196.167 35.6602 217.508C43.133 217.508 43.1321 217.508 50.6049 217.508C50.6049 196.167 50.6049 196.164 50.6049 174.823C43.1321 174.823 43.133 174.823 35.6602 174.823ZM150.947 175.894C155.217 175.894 155.22 175.894 159.49 175.894C159.49 195.101 159.49 195.101 159.49 214.308C155.22 214.308 155.217 214.308 150.947 214.308C150.947 195.101 150.947 195.101 150.947 175.894ZM38.8609 178.023C43.1311 178.023 43.134 178.023 47.4042 178.023C47.4042 196.162 47.4042 196.169 47.4042 214.308C43.134 214.308 43.1311 214.308 38.8609 214.308C38.8609 196.169 38.8609 196.162 38.8609 178.023ZM93.2978 191.902C93.2978 204.706 93.2978 204.703 93.2978 217.508C100.771 217.508 100.781 217.508 108.254 217.508C108.254 204.703 108.254 204.706 108.254 191.902C100.781 191.902 100.771 191.902 93.2978 191.902ZM166.963 191.902C166.962 204.706 166.962 204.703 166.963 217.508C174.435 217.508 174.434 217.508 181.907 217.508C181.907 204.703 181.907 204.706 181.907 191.902C174.434 191.902 174.435 191.902 166.963 191.902ZM96.5102 195.101C100.78 195.101 100.771 195.101 105.042 195.101C105.042 204.705 105.042 204.705 105.042 214.308C100.771 214.308 100.78 214.308 96.5102 214.308C96.5102 204.705 96.5102 204.705 96.5102 195.101ZM170.198 195.101H178.706V214.308H170.198V195.101Z" fill="white"/>
<defs>
<linearGradient id="paint0_linear_194_212" x1="128" y1="0" x2="128" y2="256" gradientUnits="userSpaceOnUse">
<stop stop-color="#4E1B65"/>
<stop offset="0.68" stop-color="#3D144F"/>
</linearGradient>
</defs>
</svg>
