<?xml version="1.0" standalone="no"?>
<!DOCTYPE svg PUBLIC "-//W3C//DTD SVG 20010904//EN"
 "http://www.w3.org/TR/2001/REC-SVG-20010904/DTD/svg10.dtd">
<svg version="1.0" xmlns="http://www.w3.org/2000/svg"
 width="260.000000pt" height="260.000000pt" viewBox="0 0 260.000000 260.000000"
 preserveAspectRatio="xMidYMid meet">
    <metadata>
    Created by potrace 1.14, written by Peter Selinger 2001-2017
    </metadata>
    <g transform="translate(0.000000,260.000000) scale(0.100000,-0.100000)"
    fill="#000000" stroke="none">
        <path d="M1193 2148 c-61 -139 -115 -254 -122 -254 -6 -1 -19 -2 -29 -3 -15
        -1 -19 -11 -20 -61 -1 -65 -4 -62 66 -63 21 0 22 -4 22 -78 l0 -79 -59 0 c-38
        0 -60 -4 -63 -12 -3 -7 -4 -58 -4 -113 1 -72 4 -100 14 -101 6 -1 16 -2 21 -3
        10 -1 18 -21 61 -141 l30 -85 0 -485 0 -485 190 -1 190 -1 0 479 c0 413 2 483
        16 520 9 24 25 68 36 98 11 30 24 67 30 82 6 17 15 25 24 21 17 -6 16 -11 18
        120 l2 107 -63 0 -63 0 0 79 0 78 38 0 c20 0 42 1 48 2 9 1 12 76 5 122 -1 3
        -11 4 -24 2 -28 -5 -36 5 -66 77 -13 30 -31 73 -41 95 -10 22 -46 105 -80 185
        -35 80 -64 146 -65 148 -1 1 -51 -111 -112 -250z m197 -58 c44 -101 80 -186
        80 -190 0 -3 -74 -6 -165 -7 -174 0 -179 1 -156 45 14 25 84 186 137 311 8 19
        17 32 19 29 3 -3 41 -87 85 -188z m150 -261 c0 -18 -11 -19 -235 -19 -189 0
        -235 3 -235 13 0 8 2 16 5 19 3 2 108 5 235 5 220 1 230 0 230 -18z m-105 -68
        c7 0 11 -30 10 -73 l-1 -73 -142 -3 c-78 -1 -143 1 -143 5 -4 22 -5 129 -2
        138 3 8 227 13 278 6z m110 -200 c24 -1 25 -4 25 -66 l0 -65 -270 0 -270 0 0
        64 c0 63 1 65 28 68 22 2 381 2 487 -1z m-108 -185 c10 -10 10 -376 1 -376 -5
        0 -8 4 -8 9 0 4 -18 21 -39 36 -67 46 -173 33 -214 -26 -8 -11 -17 -17 -19
        -12 -4 7 -3 339 1 368 1 12 266 13 278 1z m93 -1 c0 -1 -7 -18 -15 -36 l-14
        -34 -1 42 c0 34 3 41 15 37 8 -4 15 -7 15 -9z m-420 -32 c-1 -39 -10 -33 -24
        15 -6 16 -3 22 8 22 12 0 16 -10 16 -37z m266 -344 c37 -35 49 -87 31 -132
        -17 -39 -68 -77 -105 -77 -54 0 -115 56 -120 112 -4 37 22 90 56 111 37 24
        105 17 138 -14z m-117 -247 c58 -14 130 8 159 50 7 10 16 18 20 18 4 0 7 -133
        7 -295 l0 -295 -142 0 c-79 0 -144 3 -144 8 -1 4 -2 138 -3 297 l-1 291 31
        -32 c17 -17 50 -36 73 -42z"/>
        <path d="M410 665 l0 -485 95 0 95 0 0 28 c1 39 1 871 1 910 l-1 32 -95 0 -95
        0 0 -485z m150 1 l0 -441 -52 1 -53 1 -2 440 -1 440 54 0 54 0 0 -441z"/>
        <path d="M1987 1143 c-2 -5 -3 -224 -2 -488 l0 -480 95 0 95 0 1 488 2 487
        -93 0 c-52 0 -95 -3 -98 -7z m148 -478 l0 -440 -53 -3 -52 -3 0 446 0 445 52
        -2 53 -3 0 -440z"/>
        <path d="M645 543 l0 -358 95 -3 96 -3 -1 358 0 358 -95 3 -96 3 1 -358z m145
        0 c0 -201 -4 -313 -10 -314 -42 -6 -90 -2 -91 6 -1 11 -1 579 0 606 1 12 12
        15 51 15 l50 -1 0 -312z"/>
        <path d="M2287 892 l-67 -3 2 -357 3 -357 82 -1 c46 0 88 3 94 6 7 5 11 111
        10 346 0 187 0 344 -1 350 0 15 -38 20 -123 16z m83 -357 l0 -315 -53 0 -54 0
        0 315 0 315 54 0 53 0 0 -315z"/>
        <path d="M1530 456 l0 -275 95 1 95 1 0 274 0 273 -95 0 -95 0 0 -274z m146 2
        l1 -228 -53 0 -54 0 0 229 0 229 53 -2 52 -1 1 -227z"/>
        <path d="M182 448 l3 -263 93 -1 c60 0 92 3 93 10 1 14 1 488 0 503 -1 8 -31
        12 -96 12 l-95 1 2 -262z m131 213 c16 -1 17 -18 17 -216 l0 -215 -54 0 -53 0
        0 213 c1 116 5 215 10 218 4 3 20 5 35 3 15 -1 35 -2 45 -3z"/>
        <path d="M879 491 c0 -7 0 -267 1 -292 0 -13 16 -16 95 -16 l95 -1 0 158 0
        158 -95 0 c-52 0 -95 -3 -96 -7z m139 -40 c9 -1 12 -30 12 -111 l0 -110 -55 0
        -55 0 0 109 c0 67 4 111 10 113 10 3 57 3 88 -1z"/>
        <path d="M1755 486 c-2 -6 -3 -76 -2 -156 l2 -145 92 -2 c62 -1 93 2 96 10 2
        7 3 77 3 157 l-1 145 -93 1 c-60 0 -95 -3 -97 -10z m135 -35 c12 -1 15 -19 14
        -108 l-1 -108 -54 0 -54 0 0 100 c-1 55 2 105 7 111 4 6 22 9 40 8 18 -1 40
        -3 48 -3z"/>
    </g>
</svg>
