<svg width="298" height="298" viewBox="0 0 298 298" fill="none" xmlns="http://www.w3.org/2000/svg">
<g clip-path="url(#clip0_189_147)">
<path d="M149.049 0C86.8425 0 68.6496 0.06419 65.1132 0.35763C52.3475 1.41906 44.4038 3.42958 35.7497 7.73949C29.0804 11.0522 23.8205 14.8921 18.6294 20.2749C9.1754 30.0914 3.44571 42.1683 1.37156 56.5239C0.363135 63.4931 0.0697749 64.9145 0.0101861 100.512C-0.0127326 112.378 0.0101861 127.995 0.0101861 148.942C0.0101861 211.114 0.0789424 229.294 0.376886 232.824C1.40823 245.25 3.35633 253.067 7.4817 261.618C15.3658 277.986 30.4234 290.274 48.1625 294.859C54.3047 296.441 61.0887 297.312 69.7978 297.725C73.4878 297.885 111.097 298 148.73 298C186.363 298 223.995 297.954 227.594 297.771C237.678 297.296 243.534 296.51 250.008 294.836C267.862 290.228 282.644 278.124 290.689 261.526C294.734 253.182 296.785 245.066 297.714 233.29C297.915 230.722 298 189.785 298 148.903C298 108.014 297.908 67.152 297.707 64.5844C296.767 52.6175 294.716 44.5708 290.54 36.0656C287.114 29.1033 283.309 23.9039 277.786 18.5876C267.928 9.17001 255.873 3.43875 241.508 1.36633C234.547 0.359923 233.161 0.0618975 197.545 0H149.049Z" fill="url(#paint0_radial_189_147)"/>
<path d="M149.049 0C86.8425 0 68.6496 0.06419 65.1132 0.35763C52.3475 1.41906 44.4038 3.42958 35.7497 7.73949C29.0804 11.0522 23.8205 14.8921 18.6294 20.2749C9.1754 30.0914 3.44571 42.1683 1.37156 56.5239C0.363135 63.4931 0.0697749 64.9145 0.0101861 100.512C-0.0127326 112.378 0.0101861 127.995 0.0101861 148.942C0.0101861 211.114 0.0789424 229.294 0.376886 232.824C1.40823 245.25 3.35633 253.067 7.4817 261.618C15.3658 277.986 30.4234 290.274 48.1625 294.859C54.3047 296.441 61.0887 297.312 69.7978 297.725C73.4878 297.885 111.097 298 148.73 298C186.363 298 223.995 297.954 227.594 297.771C237.678 297.296 243.534 296.51 250.008 294.836C267.862 290.228 282.644 278.124 290.689 261.526C294.734 253.182 296.785 245.066 297.714 233.29C297.915 230.722 298 189.785 298 148.903C298 108.014 297.908 67.152 297.707 64.5844C296.767 52.6175 294.716 44.5708 290.54 36.0656C287.114 29.1033 283.309 23.9039 277.786 18.5876C267.928 9.17001 255.873 3.43875 241.508 1.36633C234.547 0.359923 233.161 0.0618975 197.545 0H149.049Z" fill="url(#paint1_radial_189_147)"/>
<path d="M149.509 53C123.572 53 120.317 53.1134 110.131 53.577C99.9638 54.0425 93.0241 55.6521 86.9518 58.0138C80.6706 60.453 75.3425 63.7159 70.0342 69.0261C64.722 74.3343 61.459 79.6624 59.0118 85.9415C56.6442 92.0157 55.0326 98.9574 54.575 109.12C54.1194 119.307 54 122.564 54 148.5C54 174.436 54.1154 177.681 54.577 187.868C55.0445 198.035 56.6541 204.974 59.0138 211.047C61.455 217.328 64.718 222.656 70.0282 227.964C75.3345 233.276 80.6627 236.547 86.9399 238.986C93.0161 241.348 99.9579 242.957 110.123 243.423C120.31 243.887 123.563 244 149.497 244C175.435 244 178.681 243.887 188.867 243.423C199.034 242.957 205.982 241.348 212.058 238.986C218.337 236.547 223.658 233.276 228.964 227.964C234.276 222.656 237.539 217.328 239.986 211.049C242.334 204.974 243.946 198.033 244.423 187.87C244.881 177.683 245 174.436 245 148.5C245 122.564 244.881 119.309 244.423 109.122C243.946 98.9554 242.334 92.0157 239.986 85.9435C237.539 79.6624 234.276 74.3343 228.964 69.0261C223.652 63.7139 218.339 60.451 212.052 58.0138C205.964 55.6521 199.02 54.0425 188.853 53.577C178.667 53.1134 175.424 53 149.479 53H149.509ZM140.942 70.2099C143.484 70.2059 146.322 70.2099 149.509 70.2099C175.008 70.2099 178.03 70.3014 188.099 70.759C197.411 71.1848 202.464 72.7406 205.831 74.0478C210.287 75.7787 213.465 77.8479 216.805 81.1904C220.148 84.5329 222.217 87.7162 223.952 92.1729C225.259 95.5353 226.817 100.589 227.241 109.9C227.698 119.967 227.798 122.992 227.798 148.478C227.798 173.965 227.698 176.989 227.241 187.056C226.815 196.367 225.259 201.421 223.952 204.783C222.221 209.24 220.148 212.413 216.805 215.754C213.463 219.096 210.289 221.166 205.831 222.896C202.468 224.21 197.411 225.761 188.099 226.187C178.032 226.645 175.008 226.744 149.509 226.744C124.008 226.744 120.986 226.645 110.919 226.187C101.607 225.758 96.5536 224.202 93.1853 222.894C88.7285 221.164 85.5452 219.094 82.2026 215.752C78.8601 212.409 76.7909 209.234 75.056 204.775C73.7488 201.413 72.1909 196.359 71.7672 187.048C71.3096 176.981 71.218 173.957 71.218 148.454C71.218 122.952 71.3096 119.944 71.7672 109.876C72.1929 100.565 73.7488 95.5114 75.056 92.1451C76.7869 87.6884 78.8601 84.5051 82.2026 81.1626C85.5452 77.8201 88.7285 75.7509 93.1853 74.016C96.5517 72.7028 101.607 71.151 110.919 70.7232C119.729 70.3253 123.143 70.2059 140.942 70.186V70.2099ZM200.487 86.0669C194.16 86.0669 189.026 91.194 189.026 97.5229C189.026 103.85 194.16 108.983 200.487 108.983C206.814 108.983 211.947 103.85 211.947 97.5229C211.947 91.196 206.814 86.0629 200.487 86.0629V86.0669ZM149.509 99.4568C122.424 99.4568 100.465 121.416 100.465 148.5C100.465 175.584 122.424 197.533 149.509 197.533C176.593 197.533 198.545 175.584 198.545 148.5C198.545 121.416 176.593 99.4568 149.509 99.4568ZM149.509 116.667C167.089 116.667 181.343 130.918 181.343 148.5C181.343 166.08 167.089 180.333 149.509 180.333C131.927 180.333 117.675 166.08 117.675 148.5C117.675 130.918 131.927 116.667 149.509 116.667Z" fill="white"/>
</g>
<defs>
<radialGradient id="paint0_radial_189_147" cx="0" cy="0" r="1" gradientUnits="userSpaceOnUse" gradientTransform="translate(79.1566 320.952) rotate(-90) scale(295.34 274.689)">
<stop stop-color="#FFDD55"/>
<stop offset="0.1" stop-color="#FFDD55"/>
<stop offset="0.5" stop-color="#FF543E"/>
<stop offset="1" stop-color="#C837AB"/>
</radialGradient>
<radialGradient id="paint1_radial_189_147" cx="0" cy="0" r="1" gradientUnits="userSpaceOnUse" gradientTransform="translate(-49.9166 21.4674) rotate(78.6806) scale(132.018 544.185)">
<stop stop-color="#3771C8"/>
<stop offset="0.128" stop-color="#3771C8"/>
<stop offset="1" stop-color="#6600FF" stop-opacity="0"/>
</radialGradient>
<clipPath id="clip0_189_147">
<rect width="298" height="298" rx="149" fill="white"/>
</clipPath>
</defs>
</svg>
