<svg width="1710" height="1705" xmlns="http://www.w3.org/2000/svg" xmlns:xlink="http://www.w3.org/1999/xlink" xml:space="preserve" overflow="hidden"><g transform="translate(-1347 -385)"><g><path d="M2200.5 385C1729.91 385 1348 766.906 1348 1237.5 1348 1708.09 1729.91 2090 2200.5 2090 2671.09 2090 3053 1708.09 3053 1237.5 3053 766.906 2671.09 385 2200.5 385Z" fill="#1ED760" fill-rule="evenodd" fill-opacity="1"/><path d="M2745.26 1151.88C2727.39 1151.88 2716.39 1147.42 2700.92 1138.49 2456.19 992.487 2018.65 957.448 1735.42 1036.46 1723.05 1039.89 1707.58 1045.39 1691.09 1045.39 1645.72 1045.39 1611 1010.01 1611 964.318 1611 917.599 1639.87 891.148 1670.81 882.216 1791.79 846.833 1927.22 830 2074.67 830 2325.58 830 2588.52 882.216 2780.66 994.205 2807.47 1009.66 2825 1030.96 2825 1071.84 2825 1118.56 2787.19 1151.88 2745.26 1151.88ZM2638.71 1413.65C2620.83 1413.65 2608.8 1405.75 2596.43 1399.22 2381.61 1272.12 2061.27 1220.93 1776.33 1298.22 1759.83 1302.69 1750.89 1307.16 1735.42 1307.16 1698.65 1307.16 1668.74 1277.27 1668.74 1240.51 1668.74 1203.75 1686.62 1179.36 1722.02 1169.4 1817.57 1142.61 1915.19 1122.68 2058.17 1122.68 2281.24 1122.68 2496.75 1177.99 2666.55 1278.99 2694.39 1295.48 2705.39 1316.77 2705.39 1346.66 2705.04 1383.76 2676.17 1413.65 2638.71 1413.65ZM2546.25 1639C2531.81 1639 2522.88 1634.53 2509.47 1626.63 2294.99 1497.47 2045.46 1491.97 1799.01 1542.47 1785.61 1545.91 1768.08 1551.4 1758.11 1551.4 1724.77 1551.4 1703.8 1524.95 1703.8 1497.12 1703.8 1461.74 1724.77 1444.91 1750.55 1439.41 2032.05 1377.23 2319.74 1382.73 2565.15 1529.42 2586.12 1542.81 2598.49 1554.84 2598.49 1586.1 2598.49 1617.36 2574.09 1639 2546.25 1639Z" fill="#000000" fill-rule="evenodd" fill-opacity="1"/></g></g></svg>